PathFileType	4	(X/Y/Z)	output.trc
DataRate	CameraRate	NumFrames	NumMarkers	Units	OrigDataRate	OrigDataStartFrame	OrigNumFrames
128	128	16	47	mm	128	2548	2911
Frame#	Time	C7			LSHO			RSHO			CLAV			T10			LUPA			RELB			LELB			LFRA			RFRA			RWRB			RWRA			RFIN			LWRB			LWRA			LFIN			RASI			LASI			RPSI			LPSI			RANK			LANK			LMMA			LHEE			LTOE			RMMA			RHEE			RTOE			RMT5			LMT5			RKNE			LKNE			LMFC			RMFC			RFM2			LFM2			RTP2			RTP3			RTA3			LTP2			LTP3			LTA3			LBHD			RBHD			RFHD			RGTR			LGTR			
		X1	Y1	Z1	X2	Y2	Z2	X3	Y3	Z3	X4	Y4	Z4	X5	Y5	Z5	X6	Y6	Z6	X7	Y7	Z7	X8	Y8	Z8	X9	Y9	Z9	X10	Y10	Z10	X11	Y11	Z11	X12	Y12	Z12	X13	Y13	Z13	X14	Y14	Z14	X15	Y15	Z15	X16	Y16	Z16	X17	Y17	Z17	X18	Y18	Z18	X19	Y19	Z19	X20	Y20	Z20	X21	Y21	Z21	X22	Y22	Z22	X23	Y23	Z23	X24	Y24	Z24	X25	Y25	Z25	X26	Y26	Z26	X27	Y27	Z27	X28	Y28	Z28	X29	Y29	Z29	X30	Y30	Z30	X31	Y31	Z31	X32	Y32	Z32	X33	Y33	Z33	X34	Y34	Z34	X35	Y35	Z35	X36	Y36	Z36	X37	Y37	Z37	X38	Y38	Z38	X39	Y39	Z39	X40	Y40	Z40	X41	Y41	Z41	X42	Y42	Z42	X43	Y43	Z43	X44	Y44	Z44	X45	Y45	Z45	X46	Y46	Z46	X47	Y47	Z47	
2548	19.89844	1554.26871	1520.25627	1545.57848	1469.73033	1264.62866	1449.39220	1135.29030	1148.94240	1009.74877	1015.30819	864.73046	882.57216	789.88485	872.34658	896.02538	802.96781	1087.39113	1059.36367	1135.43109	1133.50948	71.43827	70.41855	71.73641	41.50294	32.25447	67.97725	43.61814	35.95019	23.96767	27.87372	503.27006	512.30672	528.63508	519.95446	669.49772	672.64665	308.75781	367.18879	334.41004	298.84262	332.89916	325.01530	1440.03449	1840.03449	1470.03449	1440.03449	1840.03449	1610.03449	1640.03449	1840.03449	1610.03449	864.73046	872.34658	
2549	19.90625	1554.04514	1519.90171	1545.50157	1470.47554	1263.36664	1449.85725	1134.86719	1148.38242	1009.63479	1015.63865	865.23504	883.14378	790.56451	872.34341	896.12248	803.07290	1087.47337	1059.46891	1134.35519	1132.48274	71.41237	70.39479	71.68544	41.55640	32.19518	67.92628	43.52746	35.93009	23.93830	28.04784	503.14157	511.97636	528.51722	519.93528	669.43339	672.58178	308.57424	367.17791	334.14620	298.74520	332.67193	324.82272	1439.81614	1839.81614	1469.81614	1439.81614	1839.81614	1609.81614	1639.81614	1839.81614	1609.81614	865.23504	872.34341	
2550	19.91406	1553.74143	1519.59765	1545.33247	1470.87630	1262.17037	1449.26419	1134.30967	1147.81807	1009.47767	1015.67019	865.60238	883.61578	791.20610	872.16091	896.11112	803.09485	1087.46013	1059.63804	1133.33984	1131.50808	71.49483	70.35925	71.63407	41.55043	32.22521	67.87491	43.59068	35.91927	23.89566	28.06553	503.06816	511.88790	528.29006	519.89944	669.45400	672.35737	309.12206	366.86796	333.63125	298.66139	333.04970	324.83471	1439.55718	1839.55718	1469.55718	1439.55718	1839.55718	1609.55718	1639.55718	1839.55718	1609.55718	865.60238	872.16091	
2551	19.92188	1553.50926	1519.36127	1545.11730	1471.39136	1260.56727	1450.00378	1133.76804	1147.21558	1009.28765	1015.81451	865.91957	884.06487	791.84383	872.02830	896.20198	803.06852	1087.53898	1059.73091	1132.38067	1130.54399	71.44173	70.32788	71.59033	41.50602	32.19981	67.83117	43.64033	35.89096	23.82953	28.07173	502.96707	511.71972	528.16805	519.86924	669.40543	672.27294	308.48708	366.79953	333.83834	298.55426	332.57065	324.68263	1439.32928	1839.32928	1469.32928	1439.32928	1839.32928	1609.32928	1639.32928	1839.32928	1609.32928	865.91957	872.02830	
2552	19.92969	1553.21637	1519.02847	1545.19265	1472.08589	1259.48672	1450.05127	1133.21789	1146.60011	1009.09334	1015.84663	866.27924	884.51648	792.40948	871.82320	896.08239	803.07616	1087.68097	1060.00160	1131.43783	1129.61634	71.44422	70.36264	71.55255	41.51712	32.21424	67.79339	43.71799	35.91092	23.89462	28.09426	502.93023	511.68353	528.01404	519.84209	669.40931	672.07902	309.09497	366.71862	333.51584	298.11178	332.26992	324.51801	1439.14583	1839.14583	1469.14583	1439.14583	1839.14583	1609.14583	1639.14583	1839.14583	1609.14583	866.27924	871.82320	
2553	19.93750	1552.98951	1518.61903	1545.00889	1472.52579	1258.34771	1450.08893	1132.67169	1146.01161	1008.90710	1015.96634	866.60099	884.96226	793.04108	871.66438	895.95016	802.93997	1087.79458	1060.20359	1130.51347	1128.60198	71.50844	70.26627	71.54632	41.55815	32.20745	67.78716	43.68574	35.88754	23.82982	28.17335	502.78876	511.48683	527.81524	519.82944	669.46866	672.14145	308.49728	366.60731	333.71409	297.96519	332.00537	324.31607	1438.87248	1838.87248	1468.87248	1438.87248	1838.87248	1608.87248	1638.87248	1838.87248	1608.87248	866.60099	871.66438	
2554	19.94531	1552.64077	1518.37472	1544.81329	1473.28277	1257.23739	1450.01947	1132.15245	1145.38169	1008.68368	1016.07114	866.88802	885.43317	793.53184	871.48713	895.77369	802.79507	1087.94013	1060.27150	1129.62918	1127.77264	71.55712	70.35564	71.48739	41.54077	32.19813	67.72823	43.70940	35.89617	23.83751	28.18773	502.64909	511.21906	527.58710	519.80586	669.45363	671.87506	308.33376	366.72543	333.56788	297.70347	331.79060	324.04905	1438.60959	1838.60959	1468.60959	1438.60959	1838.60959	1608.60959	1638.60959	1838.60959	1608.60959	866.88802	871.48713	
2555	19.95312	1552.37390	1517.48810	1544.59774	1473.76751	1256.22676	1450.18510	1131.66221	1144.76322	1008.45873	1016.15813	867.18946	885.78773	794.04845	871.30097	895.66669	802.49716	1087.99105	1060.48048	1128.79253	1126.89301	71.62279	70.33865	71.43392	41.53397	32.17653	67.67476	43.72767	35.85195	23.83105	28.12541	502.50210	511.00222	527.49313	519.80773	669.43193	671.73471	308.35821	366.55105	333.52851	297.52807	331.51247	323.86221	1438.15325	1838.15325	1468.15325	1438.15325	1838.15325	1608.15325	1638.15325	1838.15325	1608.15325	867.18946	871.30097	
2556	19.96094	1552.05360	1517.02800	1544.35016	1474.21138	1255.19833	1450.40469	1131.15195	1144.18793	1008.32242	1016.26107	867.50801	886.16542	794.53838	871.11958	895.47218	802.20791	1088.05411	1060.71723	1127.92309	1126.10831	71.59563	70.30243	71.33161	41.54391	32.16315	67.57245	43.71816	35.81036	23.79056	28.16154	502.50005	510.90894	527.37261	519.77339	669.35632	671.68496	308.26844	366.57441	333.72654	297.45680	331.26439	323.70353	1437.81058	1837.81058	1467.81058	1437.81058	1837.81058	1607.81058	1637.81058	1837.81058	1607.81058	867.50801	871.11958	
2557	19.96875	1551.47829	1516.81481	1544.16268	1474.73587	1254.24737	1450.06025	1130.82952	1143.61869	1008.10673	1016.40746	867.81273	886.59911	795.05180	871.02629	895.37549	801.99212	1088.18260	1060.96037	1127.13996	1125.33630	71.61649	70.32808	71.31987	41.52834	32.12575	67.56071	43.76524	35.78760	23.76426	27.98052	502.45593	510.83818	527.28635	519.74495	669.27052	671.55127	308.22378	366.57749	333.69087	297.38402	331.30183	323.71417	1437.48526	1837.48526	1467.48526	1437.48526	1837.48526	1607.48526	1637.48526	1837.48526	1607.48526	867.81273	871.02629	
2558	19.97656	1551.31010	1516.43463	1544.04057	1475.12690	1253.35217	1450.23996	1130.53749	1143.13269	1007.92436	1016.60628	868.15955	887.03153	795.64728	870.84079	895.27744	801.63747	1088.26487	1061.06874	1126.42589	1124.59430	71.61574	70.35274	71.29326	41.55593	32.13540	67.53410	43.79814	35.59436	23.75364	28.27336	502.27425	510.70227	527.17902	519.80884	669.24314	671.38461	308.18025	366.60035	333.45573	297.36057	331.22339	323.64256	1437.26177	1837.26177	1467.26177	1437.26177	1837.26177	1607.26177	1637.26177	1837.26177	1607.26177	868.15955	870.84079	
2559	19.98438	1551.07323	1516.05599	1543.91794	1475.50429	1252.51122	1450.30148	1130.34790	1142.56373	1007.81929	1016.77961	868.53122	887.46393	796.11133	870.75461	895.16500	801.32587	1088.50689	1061.10793	1125.79668	1123.96861	71.64195	70.30637	71.27761	41.56601	32.17742	67.51845	43.79513	35.58570	23.73617	28.12459	502.28658	510.70372	527.15190	519.73245	669.23178	671.32546	308.32695	366.54988	333.35365	297.15430	331.14093	323.58963	1437.01572	1837.01572	1467.01572	1437.01572	1837.01572	1607.01572	1637.01572	1837.01572	1607.01572	868.53122	870.75461	
2560	19.99219	1550.85870	1515.77834	1543.78093	1475.99828	1251.68330	1450.28548	1130.16707	1142.15036	1007.72456	1017.06219	868.88701	888.02423	796.72407	870.73302	895.02564	801.09818	1088.59238	1061.35510	1125.19194	1123.42405	71.68907	70.31350	71.25784	41.54606	32.13923	67.49868	43.82211	35.64365	23.71696	28.13245	502.15896	510.57329	527.07651	519.75169	669.19291	670.78926	308.69976	366.49254	333.07185	297.19089	330.97278	323.34049	1436.80599	1836.80599	1466.80599	1436.80599	1836.80599	1606.80599	1636.80599	1836.80599	1606.80599	868.88701	870.73302	
2561	20.00000	1550.62667	1515.41724	1543.73183	1476.39865	1250.87090	1450.40214	1129.96833	1141.77672	1007.66545	1017.18462	869.23992	888.41716	797.16265	870.67999	894.98744	800.90619	1088.77482	1061.65548	1124.62530	1122.86525	71.73298	70.29042	71.20232	41.54323	32.13292	67.44316	43.88128	35.57098	23.69717	28.17195	502.14726	510.51731	527.02896	519.79943	669.13816	670.68433	308.67658	366.41311	332.99888	297.10018	330.97754	323.36323	1436.59192	1836.59192	1466.59192	1436.59192	1836.59192	1606.59192	1636.59192	1836.59192	1606.59192	869.23992	870.67999	
2562	20.00781	1550.41845	1515.23927	1543.68576	1476.87637	1250.09028	1450.49106	1129.85105	1141.45249	1007.63718	1017.45719	869.56313	888.80107	797.59714	870.66589	894.90538	800.71170	1088.77417	1061.81080	1124.10671	1122.37762	71.71859	70.30102	71.21182	41.58267	32.21058	67.45267	43.86596	35.55370	23.63571	28.14143	502.10457	510.43181	526.97551	519.73341	669.06031	670.64043	308.59652	366.40475	333.02657	297.09799	330.95930	323.34166	1436.44783	1836.44783	1466.44783	1436.44783	1836.44783	1606.44783	1636.44783	1836.44783	1606.44783	869.56313	870.66589	
2563	20.01562	1550.24857	1515.02219	1543.60386	1477.29562	1249.15778	1450.64626	1129.74251	1141.16712	1007.67322	1017.62178	869.85752	889.15962	798.06802	870.70885	894.89591	800.75513	1088.87701	1062.10432	1123.61629	1121.99679	71.75906	70.21196	71.18021	41.48863	32.10475	67.42105	43.93075	35.48425	23.62291	28.15109	502.11695	510.38100	526.92781	519.71379	669.00030	670.56995	308.60078	366.47731	333.01586	297.07404	330.92462	323.47611	1436.29154	1836.29154	1466.29154	1436.29154	1836.29154	1606.29154	1636.29154	1836.29154	1606.29154	869.85752	870.70885	
